<svg xmlns="http://www.w3.org/2000/svg" viewBox="0 0 511.928 511.928"><g fill="currentColor"><path d="M234.641 109.965c-.085-1.771-.789-6.101-5.504-8.448-2.923-1.472-6.507-1.365-9.301.213l-46.635 25.365 25.899 11.776 30.699-19.883c4.629-2.879 4.906-7.252 4.842-9.023zM131.644 325.837l31.424 15.723-15.723-47.147zM307.751 117.752c-11.904-5.952-26.219-5.205-37.269 1.707l-48 30.016 43.392 19.712 43.072-26.901c4.373-2.731 6.827-7.445 6.613-12.608-.299-5.163-3.179-9.622-7.808-11.926z"/><path d="M455.036 102.84a11.417 11.417 0 00-1.451-.981L282.279 6.285a8.08 8.08 0 00-2.219-.896c-15.339-7.168-32.64-7.189-48.021-.043-.811.235-1.579.533-2.304.96L58.428 101.88a9.447 9.447 0 00-1.451.96c-15.488 8.875-25.003 24.491-25.003 41.109v224c0 16.619 9.515 32.213 24.96 41.109.448.363.939.683 1.451.981l171.307 95.573a8.08 8.08 0 002.219.896c7.68 3.584 15.765 5.419 24.064 5.419 8.256 0 16.299-1.792 23.957-5.355.811-.235 1.579-.533 2.304-.96l171.307-95.573a8.3 8.3 0 001.429-.96c15.467-8.896 24.981-24.512 24.981-41.131v-224c.022-16.617-9.472-32.212-24.917-41.108zM195.367 404.728a10.552 10.552 0 01-3.392.555 10.705 10.705 0 01-10.133-7.296l-9.28-27.819-50.496-25.259-5.888 11.797c-2.624 5.291-9.024 7.381-14.315 4.779-5.269-2.645-7.403-9.045-4.779-14.315l42.667-85.333c1.92-3.861 6.123-6.165 10.283-5.867 4.309.299 8 3.157 9.365 7.253l42.667 128c1.919 5.612-1.131 11.649-6.699 13.505zm27.498-154.667a10.665 10.665 0 01-9.536 5.888c-1.6 0-3.221-.363-4.779-1.131l-128-64c-5.291-2.645-7.403-9.045-4.8-14.315a10.712 10.712 0 0114.315-4.779l128 64c5.291 2.647 7.403 9.068 4.8 14.337zm43.776 208.555c0 5.888-4.779 10.667-10.667 10.667s-10.667-4.779-10.667-10.667V309.283c0-5.888 4.779-10.667 10.667-10.667s10.667 4.779 10.667 10.667v149.333zm5.675-268.288c-1.707 1.088-3.669 1.621-5.653 1.621a10.7 10.7 0 01-4.416-.96l-117.333-53.333c-3.712-1.664-6.101-5.291-6.272-9.323a10.68 10.68 0 015.568-9.749l65.344-35.563c8.704-4.864 20.032-5.141 29.12-.597 8.704 4.352 14.677 12.139 16.597 21.376l3.925-2.432c17.216-10.773 39.808-11.819 57.984-2.752 11.755 5.867 19.051 17.088 19.648 30.059.619 12.971-5.589 24.832-16.597 31.701l-47.915 29.952zm89.792 170.645c6.315 3.925 14.059 4.267 20.757.939 7.275-3.627 11.797-10.944 11.797-19.093 0-5.888 4.779-10.667 10.667-10.667s10.667 4.779 10.667 10.667c0 16.277-9.045 30.891-23.573 38.165-6.059 3.029-12.608 4.544-19.115 4.544-7.765 0-15.531-2.155-22.421-6.421-12.672-7.829-20.224-21.397-20.224-36.288v-28.523c0-20.331 11.285-38.613 29.483-47.701 12.075-6.016 26.133-5.376 37.547 1.707 11.477 7.083 18.304 19.349 18.304 32.832 0 5.888-4.779 10.667-10.667 10.667s-10.667-4.779-10.667-10.667c0-6.123-2.987-11.477-8.192-14.677-5.227-3.2-11.307-3.499-16.789-.768-10.923 5.461-17.685 16.427-17.685 28.608v28.523c-.022 7.572 3.668 14.185 10.111 18.153zm69.312-170.154l-128 64a10.754 10.754 0 01-4.779 1.131 10.665 10.665 0 01-9.536-5.888c-2.624-5.269-.491-11.669 4.779-14.315l128-64c5.291-2.624 11.669-.512 14.315 4.779 2.602 5.247.49 11.669-4.779 14.293z"/></g></svg>