<svg xmlns="http://www.w3.org/2000/svg" viewBox="0 0 512.001 512.001"><g fill="currentColor"><path d="M133.598 406.677h-29.481v21.791h28.2c5.86 0 10.438-3.846 10.438-10.621-.001-6.41-3.846-11.17-9.157-11.17zM129.57 358.883h-25.453v19.96h24.355c4.762 0 9.705-2.015 9.705-10.072-.001-7.142-4.029-9.888-8.607-9.888z"/><path d="M.001 272.696v239.305h239.305V272.696H.001zm132.315 185.803H68.408V328.484h75.445c18.312 0 29.665 16.847 29.665 33.328 0 12.085-6.226 24.538-18.678 30.031 14.832 4.394 24.172 15.199 24.172 33.327.001 23.441-21.058 33.329-46.696 33.329zM272.697 272.696v239.305h239.304V272.696H272.697zm124.752 186.902c-36.258 0-61.711-33.878-61.711-67.205 0-31.68 23.257-64.641 62.81-64.641 23.072 0 41.385 11.353 49.625 28.383l-27.285 19.41c-4.211-12.635-15.015-16.115-23.072-16.115-17.946 0-25.819 17.762-25.819 34.06 0 18.129 9.706 34.427 26.186 34.427 8.24 0 18.495-4.212 22.157-15.931l29.115 17.396c-7.325 19.229-31.314 30.216-52.006 30.216zM258.264 92.963l-12.087 43.582H269.8z"/><path d="M136.349 0v239.305h239.305V0H136.349zm147.002 185.804l-7.874-25.453h-34.61l-7.691 25.453H195.27l48.527-130.015h28.934l48.343 130.015h-37.723z"/></g></svg>