<svg viewBox="0 0 504.885 504.885" xmlns="http://www.w3.org/2000/svg"><g fill="currentColor"><path d="M504.375 436.881l-31.328-95.05a10 10 0 00-9.497-6.87H318.336a9.999 9.999 0 00-9.497 6.87l-31.328 95.05c-2.132 6.469 2.686 13.13 9.497 13.13h207.87c6.811 0 11.629-6.661 9.497-13.13zM148.508 304.961h207.87c6.811 0 11.63-6.661 9.497-13.13l-31.328-95.05a10 10 0 00-9.497-6.87H179.836a9.999 9.999 0 00-9.497 6.87l-31.328 95.05c-2.133 6.469 2.685 13.13 9.497 13.13zM196.047 341.831a10 10 0 00-9.497-6.87H41.336a9.999 9.999 0 00-9.497 6.87L.51 436.881c-2.132 6.469 2.686 13.13 9.497 13.13h207.87c6.811 0 11.63-6.661 9.497-13.13zM429.732 185.356l34.136-22.92c6.878-4.618 8.71-13.937 4.092-20.814-4.617-6.878-13.938-8.709-20.814-4.092l-34.136 22.92c-6.878 4.618-8.71 13.937-4.092 20.814 4.618 6.88 13.939 8.708 20.814 4.092zM41.017 162.436l34.136 22.92c6.877 4.618 16.197 2.786 20.814-4.092 4.618-6.877 2.786-16.197-4.092-20.814l-34.136-22.92c-6.876-4.619-16.197-2.786-20.814 4.092-4.618 6.877-2.786 16.196 4.092 20.814zM252.442 118.652c8.284 0 15-6.716 15-15V69.874c0-8.284-6.716-15-15-15s-15 6.716-15 15v33.779c0 8.284 6.716 14.999 15 14.999z"/></g></svg>