<svg xmlns="http://www.w3.org/2000/svg" viewBox="0 0 440.125 440.125"><g fill="currentColor"><path d="M313.938 187.702L212.563 86.327c-3.079-3.958-7.836-6.37-12.85-6.301-.746.023-1.49.099-2.225.099H55.963c-8.836 0-15.999 7.415-16 16.251v328c.001 8.836 7.164 15.749 16 15.749h248c8.836 0 15.999-6.913 16-15.749v-221.4a15.998 15.998 0 00-6.025-15.274zm-97.975-52.7l49.375 49.124h-49.375v-49.124zm72 273.124h-216v-296h112v85.676a16 16 0 004.6 14.025l.125.125c.074.067.149.008.225.074 3.639 3.482 8.706 5.099 13.675 4.099h85.375v192.001z"/><path d="M393.932 107.689L292.557 6.314c-3.02-3.891-7.919-6.376-12.844-6.313-.744.032-1.486.124-2.219.124H135.963c-4.189 0-8.351 1.851-11.313 4.812-2.962 2.962-4.686 7.25-4.687 11.439v43.749h32v-28h112V97.72l38.656 38.405h65.344v192h-28v32h44c4.189 0 8.351-1.599 11.313-4.561 2.962-2.962 4.686-6.999 4.687-11.188V122.971c.934-5.675-1.473-11.775-6.031-15.282zm-97.969-3.563V55.002l49.375 49.124h-49.375z"/></g></svg>