<svg xmlns="http://www.w3.org/2000/svg" viewBox="0 0 320 320"><g fill="currentColor"><path d="M1 148.034c1.897-8.896 2.63-17.991 4.948-26.829 7.161-27.311 20.6-51.032 39.957-71.533 2.779-2.943 4.237-2.862 6.767.215 6.661 8.106 13.571 16.016 20.584 23.821 2.029 2.258 1.89 3.481-.139 5.695-22.697 24.768-33.108 54.065-32.09 87.585 1.645 54.16 45.24 102.998 98.598 112.282 64.09 11.152 125.867-30.152 138.798-93.444 8.214-40.201-2.046-75.8-29.425-106.348-2.404-2.683-3.057-4.172-.381-7.16 7.109-7.938 13.872-16.191 20.604-24.457 1.759-2.161 2.695-2.463 4.818-.307 22.8 23.15 37.632 50.525 44.009 82.41 1.197 5.985 2.026 12.044 3.024 18.069v26.006c-1.062 6.354-.648 12.844-1.962 19.196-5.746 27.814-17.854 52.425-36.559 73.827-23.818 27.255-53.52 44.346-88.827 51.949-6.51 1.402-13.166.993-19.686 2.061h-26.006c-6.355-1.062-12.844-.648-19.197-1.962-27.814-5.746-52.425-17.854-73.827-36.559-27.254-23.818-44.346-53.52-51.95-88.827-1.4-6.508-.99-13.164-2.058-19.684v-26.006z"/><path d="M161.598 176.074c11.619-13.83 23.083-27.472 34.544-41.116 9.537-11.355 19.127-22.667 28.557-34.11 1.962-2.38 2.913-2.655 5.045-.028 44.299 54.586 16.452 138.584-53.448 151.972-44.964 8.611-90.934-21.712-102.211-67.641-7.393-30.106-1.677-57.678 16.84-82.646 2.804-3.78 4.244-3.491 7.147-.088 19.792 23.197 39.789 46.219 59.722 69.296 1.19 1.381 2.396 2.75 3.804 4.361z"/><path d="M185.096 59.057c6.958.532 8.304-6.393 13.468-9.038-5.15-2.538-11.586-2.282-13.607-6.051-2.005-3.742-.449-9.393-.456-14.134 7.079.546 8.865-6.349 14.151-9.824-13.273-.508-16.066-8.248-14.609-19.01h-9.002c-.062.657-.165 1.312-.178 1.969-.171 8.859-.221 8.997-8.665 5.736-6.714-2.591-13.734-4.382-20.165-7.705h-22.005c.543 2.701-1.044 6.689 3.19 7.356 7.765 1.223 9.09 6.059 8.116 12.693-.261 1.779-.04 3.628-.04 5.874-3.531-1.25-6.623-2.362-9.728-3.435-.988-.341-2.606-1.319-2.444.758.31 3.963.725 7.985 1.767 11.8.685 2.504 3.891 2.051 5.87 3.109 1.855.993 4.795.628 4.588 4.183-.241 4.13-.056 8.284-.056 12.959l-12.604-4.288c.788 5.02.842 9.667 2.396 13.741 1.019 2.67 5.136 2.412 7.806 3.601 1.445.644 2.518 1.229 2.451 3.167-.149 4.295-.046 8.599-.046 13.222l-12.473-4.097c.596 4.568 1.117 8.331 1.566 12.102.234 1.968 1.535 2.652 3.206 3.31 7.72 3.042 7.701 3.089 7.697 11.36 0 1.167.148 2.355-.025 3.495-.61 4.022 1.044 6.835 3.978 9.545 6.24 5.762 12.327 11.716 18.116 17.926 2.308 2.475 3.129 1.518 5.267-.131 9.037-6.973 13.916-18.725 26.376-21.989 3.477-.911 6.021-5.377 9.387-8.588-3.993-1.412-7.406-2.518-10.731-3.849-1.148-.459-3.082-.469-3.173-2.017-.252-4.316-.372-8.664-.138-12.977.194-3.571 3.117.398 4.64-1.448 2.66-3.225 5.989-5.898 9.378-9.125-4.091-1.535-7.483-2.857-10.914-4.075-1.575-.559-3.275-.771-3.175-3.09.186-4.27.264-8.544.408-12.816.002-.08.275-.23.412-.219zm-40.039-44.168c9.486 3.436 18.432 6.755 27.445 9.88 2.022.701 2.404 1.855 2.367 3.7-.08 3.975-.024 7.952-.024 12.723-9.723-3.495-19.069-6.876-28.438-10.196-1.234-.437-1.344-1.303-1.347-2.319-.009-4.426-.003-8.852-.003-13.788zm17.055 111.021c-1.916 2.128-3.046 1.466-4.676-.245-3.331-3.498-6.869-6.796-10.275-10.224-.792-.797-1.914-1.739-1.989-2.685-.22-2.805-1.009-6.368.344-8.266 1.343-1.883 4.392.691 6.62 1.445 7.196 2.438 14.332 5.055 21.81 7.715-4.234 4.356-8.168 8.187-11.834 12.26zm12.739-25.762c-9.686-3.473-18.967-6.835-28.281-10.107-1.782-.626-1.487-1.945-1.492-3.229-.016-4.146-.006-8.293-.006-13.021 9.479 3.433 18.58 6.799 27.743 9.988 1.879.654 2.07 1.778 2.053 3.383-.049 4.135-.017 8.27-.017 12.986zm-.267-29.612c-9.538-3.399-18.527-6.604-27.519-9.802-1.382-.491-2.291-1.276-2.006-2.907.028-.161.013-.332.002-.497-.808-13.314-.808-13.314 11.645-8.795 1.862.675 3.727 1.343 5.587 2.024 13.331 4.887 13.331 4.888 12.291 19.977z"/></g></svg>