<svg viewBox="-53 0 512 512" xmlns="http://www.w3.org/2000/svg"><g fill="currentColor"><path d="M385.89 353c11.044 0 20-8.953 20-20V130c0-44.113-35.89-80-80-80h-63V20c0-11.047-8.956-20-20-20h-80c-11.046 0-20 8.953-20 20v30H80C35.887 50 0 85.887 0 130v302c0 44.113 35.887 80 80 80h245.89c44.11 0 80-35.887 80-80 0-11.047-8.956-20-20-20-11.046 0-20 8.953-20 20 0 22.055-17.945 40-40 40H80c-22.055 0-40-17.945-40-40V130c0-22.055 17.945-40 40-40h62.89v10c0 33.086 26.915 60 60 60 33.083 0 60-26.914 60-60V90h63c22.055 0 40 17.945 40 40v203c0 11.047 8.954 20 20 20zm-163-253c0 11.027-8.972 20-20 20-11.03 0-20-8.973-20-20V40h40zm-114 291c0 11.047 8.954 20 20 20h148c11.044 0 20-8.953 20-20 0-33.285-17.394-62.586-43.566-79.29 7.887-10.522 12.567-23.577 12.567-37.71 0-34.738-28.262-63-63-63s-63 28.262-63 63c0 14.129 4.675 27.188 12.562 37.71-26.172 16.704-43.562 46.005-43.562 79.29zm43.837-20c7.964-19.902 27.449-34 50.164-34 22.71 0 42.195 14.098 50.16 34zm27.164-97c0-12.684 10.316-23 23-23 12.68 0 23 10.316 23 23s-10.32 23-23 23c-12.684 0-23-10.316-23-23zm0 0"/></g></svg>