<svg viewBox="0 0 512 512" xmlns="http://www.w3.org/2000/svg"><g fill="currentColor"><path d="M256 0C114.836 0 0 114.836 0 256s114.836 256 256 256 256-114.836 256-256S397.164 0 256 0zm0 106.668c11.777 0 21.332 9.555 21.332 21.332s-9.555 21.332-21.332 21.332-21.332-9.555-21.332-21.332 9.555-21.332 21.332-21.332zm48 298.664h-96c-11.797 0-21.332-9.555-21.332-21.332s9.535-21.332 21.332-21.332h26.668v-128h-16c-11.797 0-21.336-9.559-21.336-21.336 0-11.773 9.54-21.332 21.336-21.332H256c11.797 0 21.332 9.559 21.332 21.332v149.336H304c11.797 0 21.332 9.555 21.332 21.332s-9.535 21.332-21.332 21.332zm0 0"/></g></svg>