<svg xmlns="http://www.w3.org/2000/svg" viewBox="0 0 98.48 98.481"><g fill="currentColor"><path d="M69.322 44.716L49.715 64.323c10.723-.251 19.356-8.885 19.607-19.607z"/><path d="M97.204 45.789c-.449-.529-6.245-7.23-15.402-13.554l-6.2 6.2c5.99 3.954 10.559 8.275 13.011 10.806-5.378 5.554-20.913 19.728-39.372 19.728a36.9 36.9 0 01-3.952-.222l-7.439 7.438c3.639.91 7.449 1.451 11.391 1.451 26.426 0 47.098-23.927 47.964-24.946a5.303 5.303 0 00-.001-6.901zM90.651 15.901a.991.991 0 00-.293-.707l-7.071-7.07a.999.999 0 00-1.414 0L66.045 23.952c-5.202-1.893-10.855-3.108-16.804-3.108-26.427 0-47.098 23.926-47.965 24.946a5.306 5.306 0 00.001 6.903c.517.606 8.083 9.354 19.707 16.319l-12.86 12.86a.997.997 0 000 1.414l7.071 7.07a1.001 1.001 0 001.414 0l73.75-73.75a.99.99 0 00.292-.705zM9.869 49.241C13.5 45.49 21.767 37.812 32.436 33.22a19.995 19.995 0 00-3.301 11.021c0 4.665 1.601 8.945 4.27 12.352l-6.124 6.123c-8.152-4.52-14.391-10.355-17.412-13.475z"/></g></svg>