<svg xmlns="http://www.w3.org/2000/svg" viewBox="0 0 455 455"><g fill="currentColor"><path d="M416.296 38.642c-51.523-51.523-135.058-51.523-186.581 0-41.222 41.222-49.457 102.934-24.718 152.35L.183 395.811.061 454.87l114.532.13v-55.705h55.705V343.59h55.705v-55.705l37.943-37.943c49.416 24.74 111.128 16.504 152.35-24.718 51.524-51.523 51.524-135.059 0-186.582zm-41.941 98.359c-15.579 15.579-40.838 15.579-56.418 0s-15.579-40.838 0-56.418 40.838-15.579 56.418 0c15.58 15.58 15.58 40.839 0 56.418z"/></g></svg>