<svg xmlns="http://www.w3.org/2000/svg" viewBox="0 0 1500 340"><g fill="currentColor"><path d="M163.037 1c7.706 1.662 15.515 2.946 23.098 5.049 38.349 10.634 67.685 33.182 88.086 67.348.583.977 1.031 2.035 1.921 3.812-8.335-2.707-15.904-5.587-23.837-7.125-14.856-2.881-29.48-.849-44.02 2.287-44.743 9.649-83.516 31.219-118.825 59.668-2.074 1.67-4.172 3.319-6.151 5.097-4.589 4.123-8.596 7.19-16.076 5.151-10.334-2.817-17.81 6.618-14.783 17.221.914 3.202 1.613 5.967-.904 8.791-12.535 14.057-20.844 30.791-29.72 47.163-.379.699-.873 1.337-1.702 2.589-11.11-19.927-16.92-40.785-18.255-62.971-.763-4.628-.16-9.291-.353-13.927-.362-32.77 11.539-61.13 31.624-86.341 21.668-27.198 49.916-44.018 83.684-51.825 5.344-1.236 10.868-.815 16.206-1.987h21.005c2 .819 4.001.819 6.001 0h3.001zM136.031 293.066c-6.919-2.287-14.292-2.113-21.304-3.988-6.426-1.719-12.859-3.367-19.054-5.822-.739-.293-1.674-.331-1.814-1.014 86.374-27.374 158.143-72.788 198.135-158.063 3.345 17.57 2.532 35.39-1.433 53.035-13.392 59.595-59.024 102.856-119.555 113.65-4.318.77-8.816.472-12.97 2.202h-3.001a57.145 57.145 0 00-17.004 0h-2z"/><path d="M138.031 293.066c5.668-1.612 11.336-1.613 17.004 0h-17.004zM1 140.032c.263-.061.529-.087.798-.08l.071 15.126a50.53 50.53 0 01-.869-.043v-15.003zM160.037 1c-2 1.56-4.001 1.492-6.001 0h6.001zM1291.404 247.057c-22.667 0-45.335.012-68.002-.008-7.579-.006-9.087-1.982-6.607-9.035 3.028-8.613 8.018-16.029 14.316-22.615 2.805-2.932 6.243-3.387 10.044-3.381 36.502.053 73.004.028 109.505.037 3.168 0 6.285-.197 9.426-.791 12.129-2.295 18.28-9.683 17.282-21.039-.702-7.998-9.888-15.092-20.234-15.143-25.001-.123-50.003-.1-75.004-.009-7.888.028-15.675-.671-23.147-3.126-16.265-5.343-30.867-13.601-38.559-29.559-11.485-23.832-3.44-65.772 39.124-73.328a127.239 127.239 0 0122.337-1.959c41.669.02 83.338.006 125.006.012 8.68.001 10.267 2.189 7.091 10.219-2.646 6.688-6.197 12.869-10.839 18.436-4.143 4.969-9.217 7.091-15.725 7.066-36.835-.142-73.67-.046-110.506-.093-5.616-.007-10.979.629-15.586 4.199-5.981 4.634-9.32 10.583-7.744 18.236 1.579 7.665 7.093 11.811 14.344 13.721 3.04.8 6.197 1.04 9.396 1.038 27.333-.023 54.672-.25 81.999.194 23.726.385 49.025 19.159 53.964 39.921 8.023 33.743-9.196 59.88-44.951 66.015-5.623.967-11.27.974-16.927.98-20 .027-40.001.012-60.003.012zM601.232 175.039c3.575 12.031 8.293 22.725 17.963 30.434 5.948 4.742 12.938 6.596 20.512 6.59 38.008-.029 76.016-.016 114.024-.013 8.784 0 9.977 1.722 6.951 10.114-3.056 8.477-8.313 15.506-14.553 21.863-2.071 2.111-4.6 3.063-7.642 3.058-38.341-.05-76.685.124-115.024-.142-10.961-.076-19.993-5.818-28.317-12.422-18.329-14.541-27.95-34.418-31.574-56.748-5.008-30.859.008-60.142 19.526-85.633 12.544-16.382 28.712-25.422 50.105-25.167 40.169.479 80.349.135 120.522.141 8.529.001 10.128 2.292 7.146 10.345-2.577 6.954-6.641 13.017-11.369 18.676-4.06 4.859-9.437 6.615-15.521 6.62-27.34.023-54.68.052-82.019-.039-3.969-.013-7.929-.301-11.918-.311-19.357-.048-28.793 12.395-35.715 27.889-4.231 9.471-3.939 9.601 6.493 9.601 42.009 0 84.018-.004 126.026.003 9.951.002 11.173 1.867 7.269 11.204-2.785 6.661-6.703 12.592-11.41 18.087-3.651 4.262-7.932 5.956-13.558 5.932-37.342-.157-74.684-.082-112.024-.082h-5.893zM384.563 126.689c-1.035 1.974-.543 3.807-.545 5.55-.037 35.664-.026 71.329-.029 106.993 0 7.625-.108 7.727-7.935 7.729-8.166.002-16.335-.118-24.498.051-4.05.082-5.553-1.382-5.545-5.559.102-56.329.102-112.659 0-168.989-.008-4.22 1.523-5.532 5.585-5.419 8.16.225 16.333.161 24.496.012 2.561-.047 4.344.817 6.133 2.566 14.887 14.559 29.837 29.051 44.796 43.535 25.607 24.792 51.233 49.565 76.858 74.34.351.338.792.581 1.452 1.059 1.113-1.697.617-3.515.619-5.173.036-36.665.1-73.33-.063-109.993-.021-4.686 1.145-6.577 6.14-6.379 8.984.355 18 .286 26.991.022 4.502-.132 5.897 1.859 5.874 5.938-.068 12.166-.022 24.332-.022 36.498 0 43.164.002 86.328-.002 129.492-.001 7.661-.337 7.996-7.748 7.999-7.833.002-15.669-.127-23.497.064-2.922.072-5.001-.892-7.042-2.868-21.522-20.876-43.099-41.695-64.674-62.517-18.575-17.927-37.167-35.836-55.76-53.746-.437-.421-.97-.743-1.584-1.205zM28.836 224.1c.041-12.787 2.91-20.574 6.9-27.947 4.844-8.952 11.083-17.012 16.853-25.369 2.004-2.904 4.156-3.925 7.986-3.009 12.402 2.964 20.436-5.239 17.173-17.412-.722-2.695.042-3.946 1.888-5.409 26.904-21.324 56.499-36.96 90.727-42.611 8.217-1.357 16.529-1.64 24.8.244 19.24 4.382 27.118 17.599 22.211 36.833-4.21 16.505-13.717 29.843-24.732 42.257-29.283 33.002-65.434 54.672-108.416 64.689-12.226 2.851-24.606 4.072-36.873-.396-12.3-4.488-18.593-13.267-18.517-21.87zM955.986 247.057c-5.501 0-11.017-.229-16.499.08-3.72.207-6.222-1.105-8.599-3.859-15.128-17.523-30.396-34.926-45.582-52.4-4.436-5.105-4.289-5.074-8.695-.037-15.248 17.424-30.609 34.745-45.809 52.209-2.499 2.871-5.104 4.189-9.017 4.1-11.33-.258-22.67-.09-34.005-.092-2.322 0-4.77.354-5.907-2.509-1.042-2.621.929-4.106 2.262-5.632 17.316-19.816 34.7-39.574 52.073-59.342 5.499-6.258 10.933-12.573 16.567-18.705 2.11-2.296 2.084-3.807-.024-6.201-17.607-20-35.074-40.126-52.575-60.22-5.47-6.28-10.938-12.563-16.358-18.882-1.4-1.632-3.021-3.388-1.826-5.773 1.215-2.421 3.535-2.705 5.992-2.697 11.503.039 23.005.108 34.506-.039 3.374-.043 5.529 1.395 7.643 3.817 15.77 18.072 31.7 36.001 47.416 54.119 2.509 2.894 3.771 2.892 6.291-.019 15.706-18.124 31.651-36.04 47.404-54.123 2.273-2.608 4.666-3.849 8.167-3.798 11.167.162 22.337.064 33.506.057 2.687-.001 5.623-.288 6.937 2.722 1.223 2.806-.923 4.661-2.566 6.529-22.781 25.878-45.52 51.796-68.423 77.565-2.626 2.954-2.233 4.658.188 7.384 22.68 25.524 45.234 51.161 67.795 76.79 1.705 1.937 4.28 3.821 2.844 6.857-1.331 2.809-4.263 2.068-6.7 2.086-5.67.04-11.338.013-17.006.013zM1000.229 119.679c0-15.003-.022-30.006.012-45.009.015-6.379 1.214-7.534 7.604-7.553 7.502-.022 15.004-.019 22.505-.001 6.261.015 7.611 1.294 7.619 7.604.033 28.006-.001 56.011.021 84.017.012 14.632 2.608 28.556 12.208 40.228 7.313 8.893 16.386 14.285 28.44 14.018 13.329-.297 26.688-.484 40.002.041 15.295.604 25.451-6.674 33.174-19.043 7.174-11.486 9.192-24.164 9.268-37.279.152-27.004.041-54.011.05-81.017.002-8.294.284-8.569 8.329-8.571 7.168-.001 14.336-.028 21.505.009 5.896.03 7.193 1.233 7.198 6.898.025 30.006 1.037 60.058-.281 90.006-1.282 29.109-11.427 54.988-35.607 73.47-8.187 6.258-17.63 9.431-27.889 9.502-23.505.164-47.016.387-70.513-.063-16.753-.317-29.781-8.896-40.21-21.355-15.904-19.003-23.234-41.234-23.419-65.891-.099-13.338-.016-26.675-.016-40.011z"/></g></svg>