<svg xmlns="http://www.w3.org/2000/svg" viewBox="0 0 120 120"><g fill="currentColor"><path d="M118.182 50.07c2.535 15.105-.781 31.196-10.529 44.579-16.373 22.474-45.596 30.055-70.165 19.961 0 0 23.083-4.682 47.047-22.646 26.331-19.107 33.647-41.894 33.647-41.894zM8.456 88.877C-2.389 69.421-1.664 44.588 12.35 25.351 31.56-1.02 68.469-6.884 94.784 12.251c7.413 5.391 13.196 12.191 17.25 19.768 0 0-8.913-3.908-16.089-3.703-7.174.204-19.604 2.613-33.096 8.818-8.886 4.573-17.241 8.818-31.545 21.149-.937.734-1.494.421-2.446.04-.95-.381-3.343-1.061-5.489.572-2.146 1.632-2.738 4.018-1.804 6.473.608 1.678.375 2.12.009 2.7-.365.58-4.183 5.347-5.229 6.748-1.046 1.402-7.257 13.065-7.541 13.529-.284.462-.348.532-.348.532z"/><path d="M61.098 43.826c6.445-1.801 13.396-3.177 19.984-1.258 3.137.922 5.955 3.225 6.97 6.412 1.333 4.093.169 8.49-1.387 12.349-1.933 4.606-4.979 8.625-8.226 12.376-9.357 10.921-21.658 19.227-35.211 23.98-4.008 1.364-8.061 2.705-12.293 3.145-2.352.273-4.737.725-7.098.266-3.762-.49-7.766-1.801-10.029-5.045-2.428-3.373-2.179-7.917-.939-11.699 1.678-5.3 5.306-9.615 8.338-14.166.568-.779 1.119-1.729 2.116-1.994 1.328.144 2.605.818 3.963.627 2.563-.229 4.71-2.525 4.84-5.086.112-1.237-.395-2.394-.783-3.536 8.776-7.22 18.8-13.158 29.755-16.371"/></g></svg>