<svg xmlns="http://www.w3.org/2000/svg" viewBox="0 0 512.021 512.021"><g fill="currentColor"><path d="M481.515 229.003l-80.235-88.128c-15.381-15.424-42.091-15.531-57.749.128-5.056 5.056-8.512 11.136-10.304 17.621-15.573-11.947-39.339-10.645-53.696 3.712a40.453 40.453 0 00-10.347 17.6c-15.531-11.947-39.317-10.581-53.653 3.733a40.507 40.507 0 00-10.24 17.216l-37.803-37.803c-15.893-15.872-41.707-15.915-57.771.128-15.893 15.872-15.893 41.728 0 57.621l145.237 145.237-86.101 13.525C145.557 382.923 128 403.147 128 426.677c0 17.643 14.357 32 32 32h201.152c31.317 0 60.779-12.203 83.008-34.389l33.536-33.557c22.144-22.123 34.325-51.563 34.325-82.859 0-29.227-10.837-57.237-30.506-78.869zm-18.923 146.666l-33.536 33.557c-18.155 18.133-42.283 28.117-67.904 28.117H160c-5.867 0-10.667-4.779-10.667-10.667 0-12.971 9.685-24.128 22.656-26.005l106.987-16.811c3.968-.619 7.232-3.413 8.491-7.232 1.237-3.797.235-8-2.603-10.837L124.8 205.728c-7.552-7.573-7.552-19.883.128-27.584a19.436 19.436 0 0113.739-5.675c4.971 0 9.941 1.899 13.739 5.696L215.04 240.8c.149.171.341.341.512.512l43.605 43.584c4.16 4.16 10.923 4.16 15.083 0s4.16-10.923 0-15.083l-43.968-43.968c-7.189-7.595-7.061-19.648.491-27.221 7.339-7.296 20.096-7.339 27.435 0l20.971 20.992c.128.128.235.256.363.363l22.272 22.251c4.16 4.16 10.923 4.16 15.083 0s4.16-10.923 0-15.083l-22.528-22.507c-7.275-7.595-7.189-19.733.405-27.349 7.317-7.296 20.096-7.339 27.435 0l22.272 22.357c.021.021.021.043.043.043l.021.021.085.043s0 .021.021.021l.021.021.021.021h.042c4.224 3.925 10.795 3.819 14.848-.277 4.139-4.16 4.139-10.901-.021-15.061l-1.28-1.28c-7.211-7.595-7.104-19.669.469-27.243 7.339-7.296 20.437-6.976 27.093-.363l79.872 87.787c16.107 17.707 24.96 40.597 24.96 64.512.001 25.579-9.983 49.664-28.074 67.776z"/><path d="M344.597 199.755h.021l-.043-.021c.022.021.044.021.022.021zM226.069 152.629c-15.552-34.389-49.835-56.619-87.403-56.619-52.928 0-96 43.072-96 96 0 37.547 22.229 71.851 56.597 87.403a10.694 10.694 0 0014.123-5.333c2.411-5.376.043-11.691-5.333-14.123C81.301 247.861 64 221.195 64 192.011c0-41.173 33.493-74.667 74.667-74.667 29.184 0 55.851 17.301 67.947 44.053a10.661 10.661 0 0014.123 5.333c5.354-2.41 7.743-8.746 5.332-14.101z"/><path d="M272.533 156.363C256.427 95.712 201.365 53.344 138.667 53.344 62.208 53.344 0 115.552 0 192.011c0 62.699 42.368 117.76 103.04 133.867.917.256 1.835.363 2.731.363 4.736 0 9.045-3.136 10.304-7.915 1.515-5.696-1.856-11.541-7.573-13.056-51.307-13.632-87.168-60.203-87.168-113.259 0-64.704 52.651-117.333 117.333-117.333 53.035 0 99.627 35.84 113.259 87.168 1.493 5.675 7.147 9.088 13.056 7.573 5.674-1.515 9.045-7.36 7.551-13.056z"/></g></svg>