<svg xmlns="http://www.w3.org/2000/svg" viewBox="0 0 329.024 329.024"><defs/><path d="M326.595 136.333a9.265 9.265 0 00-4.06-6.149 9.242 9.242 0 00-7.277-1.207c-5.675 1.417-11.56 1.099-16.91-.96-14.465-5.554-21.701-21.845-16.158-36.305 2.107-5.464 5.896-10.094 10.965-13.391a9.16 9.16 0 004.059-6.148 9.202 9.202 0 00-1.729-7.158 163.476 163.476 0 00-36.034-34.834 9.325 9.325 0 00-7.206-1.495 9.269 9.269 0 00-6.011 4.246 27.762 27.762 0 01-12.574 11.085 27.84 27.84 0 01-11.397 2.438 28.131 28.131 0 01-25.683-16.682c-2.401-5.404-3.02-11.337-1.801-17.155a9.285 9.285 0 00-1.472-7.212 9.222 9.222 0 00-6.28-3.819c-16.646-2.324-33.666-2.071-50.06.733-2.534.432-4.752 1.897-6.161 4.035s-1.865 4.768-1.249 7.253c1.384 5.615 1.021 11.403-1.033 16.742-4.131 10.785-14.679 18.033-26.22 18.033-3.438 0-6.818-.637-10.076-1.886-5.479-2.107-10.115-5.903-13.406-10.983-1.384-2.15-3.603-3.627-6.125-4.071s-5.116.174-7.158 1.706a163.104 163.104 0 00-35.017 35.98 9.223 9.223 0 00-1.501 7.236 9.257 9.257 0 004.287 6.023 27.859 27.859 0 0111.214 12.646c3.05 6.857 3.254 14.49.567 21.491-2.688 7.001-7.951 12.538-14.808 15.588-5.491 2.432-11.604 3.021-17.489 1.724a9.264 9.264 0 00-7.254 1.411 9.234 9.234 0 00-3.894 6.287c-2.39 16.849-2.177 33.789.639 50.35a9.243 9.243 0 004.096 6.209 9.284 9.284 0 007.338 1.171c5.743-1.507 11.706-1.2 17.149.889 7.002 2.69 12.535 7.95 15.585 14.796 3.05 6.852 3.243 14.484.556 21.491-2.165 5.608-6.101 10.322-11.4 13.631a9.25 9.25 0 00-4.194 6.131 9.291 9.291 0 001.69 7.242c10.22 13.595 22.413 25.454 36.248 35.224a9.152 9.152 0 007.305 1.478 9.24 9.24 0 006.008-4.39c3-5.188 7.446-9.199 12.862-11.613a27.942 27.942 0 0111.4-2.432c11.1 0 21.185 6.545 25.692 16.682 2.495 5.607 3.062 11.763 1.66 17.804a9.15 9.15 0 001.372 7.319 9.235 9.235 0 006.326 3.916 165.189 165.189 0 0022.683 1.585c9.322 0 18.702-.816 27.859-2.408a9.243 9.243 0 006.203-4.125 9.232 9.232 0 001.129-7.356c-1.573-5.842-1.297-11.835.816-17.312 4.144-10.778 14.693-18.032 26.247-18.032 3.435 0 6.815.643 10.052 1.88 5.608 2.161 10.316 6.101 13.619 11.385a9.27 9.27 0 006.161 4.18 9.201 9.201 0 007.229-1.718 162.97 162.97 0 0035.056-36.311 9.185 9.185 0 001.466-7.266 9.269 9.269 0 00-4.348-6.006c-5.116-2.984-9.098-7.409-11.47-12.777-6.287-14.153.103-30.793 14.243-37.08 5.477-2.438 11.578-3.026 17.463-1.723a9.28 9.28 0 007.266-1.441 9.181 9.181 0 003.867-6.317c2.278-16.77 1.972-33.674-.922-50.258zm-133.337 92.786c-9.121 4.059-18.783 6.112-28.703 6.112-27.922 0-53.299-16.477-64.648-41.979-15.84-35.62.237-77.504 35.873-93.351 9.124-4.065 18.783-6.119 28.703-6.119 27.922 0 53.298 16.483 64.648 41.986 15.847 35.62-.252 77.497-35.873 93.351z"/><path d="M164.49 112.229c-7.311 0-14.463 1.52-21.209 4.521-26.322 11.716-38.227 42.67-26.508 69.001 8.382 18.855 27.142 31.033 47.783 31.033 7.311 0 14.454-1.514 21.208-4.516 26.325-11.716 38.215-42.67 26.512-69.001-8.383-18.86-27.142-31.038-47.786-31.038z"/></svg>