<svg xmlns="http://www.w3.org/2000/svg" viewBox="0 0 512 512"><g fill="currentColor"><path d="M510.412 129.292c-3.706-7.412-12.729-10.386-20.127-6.709l-59.999 30c-7.412 3.706-10.415 12.715-6.709 20.127 3.701 7.382 12.665 10.415 20.127 6.709l59.999-30c7.412-3.706 10.415-12.715 6.709-20.127zM503.703 302.581l-59.999-30c-7.412-3.691-16.406-.718-20.127 6.709-3.706 7.412-.703 16.421 6.709 20.127l59.999 30a15.011 15.011 0 0020.127-6.709c3.706-7.412.703-16.421-6.709-20.127zM344.996 242H119.999v-76.999c0-41.353 33.647-74.999 74.999-74.999s74.999 33.647 74.999 74.999v30c0 8.291 6.709 15 15 15h59.999c8.291 0 15-6.709 15-15v-30c0-90.98-74.018-164.998-164.998-164.998S30 74.021 30 165.001v79.762c-17.422 6.213-30 22.707-30 42.236v179.998c0 24.814 20.186 44.999 44.999 44.999h299.997c24.814 0 44.999-20.186 44.999-44.999V286.999c0-24.814-20.185-44.999-44.999-44.999zM209.998 389.235v47.762c0 8.291-6.709 15-15 15s-15-6.709-15-15v-47.762c-17.422-6.213-30-22.707-30-42.236 0-24.814 20.186-45 45-45s44.999 20.186 44.999 45c0 19.53-12.578 36.023-29.999 42.236zM496.994 211h-59.999c-8.291 0-15 6.709-15 15s6.709 15 15 15h59.999c8.291 0 15-6.709 15-15s-6.709-15-15-15z"/></g></svg>