<svg xmlns="http://www.w3.org/2000/svg" viewBox="0 -15 511.999 511"><g fill="currentColor"><path d="M256 .5c-41.352 0-75 34.648-75 76s33.648 75 75 75 75-33.648 75-75-33.648-76-75-76zm0 0M361 271.5c33.09 0 60-26.91 60-60s-26.91-60-60-60-60 26.91-60 60 26.91 60 60 60zm0 0M15 451.5h15c16.57 0 30-13.434 30-30v-180c0-16.57-13.43-30-30-30H15c-8.285 0-15 6.715-15 15v210c0 8.285 6.715 15 15 15zm0 0M90 241.5v180c0 3.023-.46 5.922-.89 8.824l87.523 43.266a75.467 75.467 0 0033.531 7.91H345.66a59.98 59.98 0 0031.54-8.95l122.816-86.827c13.226-9.961 15.921-28.801 5.992-42.028-9.008-12.007-26.465-17.21-42-5.988l-92.328 52.078a14.99 14.99 0 01-6.973 1.715H193c-8.293 0-15-6.707-15-15 0-8.29 6.707-15 15-15h138c16.57 0 30-13.434 30-30 0-16.57-13.43-30-30-30h-70.46l-71.103-47.402c-12.347-8.246-26.734-12.598-41.601-12.598zm0 0"/></g></svg>